<svg width="408" height="72" viewBox="0 0 408 72" fill="none" xmlns="http://www.w3.org/2000/svg">
<path d="M21.5948 7.41759C22.1886 6.90007 22.1917 6.11568 21.7657 5.51873L27.4381 0.575737C31.4887 4.36856 31.7329 9.88542 28.0798 13.0687L14.9972 24.4691C14.29 25.0853 14.4206 26.0801 15.116 26.6861C15.8114 27.2921 16.9529 27.4058 17.6602 26.7896L30.7427 15.3892C34.4902 12.1237 41.0556 12.432 45.4126 16.2287C49.7694 20.0253 50.1232 25.7465 46.3757 29.012L33.2932 40.4123C32.5859 41.0287 32.7166 42.0235 33.4119 42.6294C34.1073 43.2353 35.2489 43.3492 35.9561 42.7329L49.0387 31.3326C52.7862 28.067 59.3516 28.3753 63.7084 32.1719C68.0654 35.9687 68.4192 41.6898 64.6718 44.9554L51.5892 56.3557C50.882 56.972 51.0124 57.9666 51.708 58.5728C52.4033 59.1787 53.5449 59.2926 54.2522 58.6763L67.3347 47.276C70.9878 44.0926 77.3187 44.3054 81.6711 47.8351L75.9988 52.7781C75.3137 52.4069 74.4136 52.4095 73.8197 52.927L60.7371 64.3273C56.9897 67.5929 50.4242 67.2846 46.0674 63.488C41.7104 59.6912 41.3566 53.97 45.104 50.7045L58.1866 39.3042C58.8938 38.6879 58.7634 37.6933 58.0678 37.0871C57.3725 36.4812 56.2309 36.3673 55.5236 36.9836L42.4411 48.3839C38.6937 51.6495 32.1282 51.3412 27.7714 47.5446C23.4146 43.7481 23.0608 38.0268 26.8082 34.7613L39.8908 23.361C40.5981 22.7447 40.4673 21.7498 39.772 21.1439C39.0765 20.5378 37.935 20.4242 37.2278 21.0404L24.1453 32.4407C20.3979 35.7063 13.8323 35.398 9.47542 31.6013C5.11853 27.8047 4.76478 22.0834 8.51218 18.8179L21.5948 7.41759Z" fill="#E3E3E3" stroke="black" stroke-width="0.868565"/>
<path d="M8.64868 53.0459C8.0548 52.5284 7.15466 52.5257 6.46962 52.897L0.79723 47.954C5.14973 44.4243 11.4807 44.2114 15.1337 47.3948L28.2163 58.7951C28.9235 59.4114 30.0651 59.2976 30.7605 58.6916C31.4559 58.0856 31.5865 57.0909 30.8792 56.4746L17.7967 45.0743C14.0492 41.8087 14.403 36.0875 18.76 32.2908C23.1168 28.4942 29.6822 28.1859 33.4297 31.4515L46.5122 42.8518C47.2195 43.4681 48.3611 43.3542 49.0564 42.7483C49.7517 42.1424 49.8825 41.1476 49.1752 40.5312L36.0926 29.1309C32.3452 25.8654 32.699 20.1442 37.0558 16.3476C41.4128 12.5508 47.9782 12.2425 51.7257 15.5081L64.8083 26.9084C65.5155 27.5247 66.6569 27.411 67.3525 26.8049C68.0478 26.199 68.1785 25.2042 67.4712 24.5879L54.3887 13.1876C50.7356 10.0042 50.9798 4.4874 55.0303 0.694635L60.7027 5.63763C60.2767 6.23455 60.2797 7.01898 60.8736 7.53651L73.9562 18.9368C77.7036 22.2024 77.3499 27.9236 72.993 31.7202C68.636 35.5169 62.0705 35.8252 58.3231 32.5596L45.2405 21.1593C44.5333 20.5431 43.3919 20.6567 42.6964 21.2628C42.001 21.8687 41.8703 22.8636 42.5776 23.4799L55.6601 34.8802C59.4076 38.1457 59.0538 43.8669 54.697 47.6635C50.3402 51.4601 43.7747 51.7684 40.0273 48.5028L26.9447 37.1025C26.2375 36.4862 25.0958 36.6001 24.4005 37.206C23.705 37.8122 23.5745 38.8068 24.2818 39.4231L37.3643 50.8234C41.1117 54.0889 40.7579 59.8102 36.401 63.6069C32.0441 67.4035 25.4787 67.7118 21.7313 64.4462L8.64868 53.0459Z" fill="#E3E3E3" stroke="black" stroke-width="0.868565"/>
<path d="M97.7049 28.4742V10.2344H101.197L108.962 23.1065H107.111L114.746 10.2344H118.212L118.264 28.4742H114.303L114.277 16.3056H115.007L108.909 26.546H107.007L100.78 16.3056H101.666V28.4742H97.7049ZM122.591 28.4742V10.2344H130.487C132.119 10.2344 133.527 10.5036 134.708 11.0421C135.889 11.5633 136.801 12.3189 137.444 13.3091C138.087 14.2993 138.408 15.4805 138.408 16.8528C138.408 18.2078 138.087 19.3804 137.444 20.3705C136.801 21.3433 135.889 22.0903 134.708 22.6114C133.527 23.1326 132.119 23.3931 130.487 23.3931H124.936L126.813 21.5431V28.4742H122.591ZM134.187 28.4742L129.627 21.8558H134.135L138.747 28.4742H134.187ZM126.813 22.0121L124.936 20.0318H130.252C131.555 20.0318 132.528 19.7538 133.17 19.198C133.813 18.6247 134.135 17.843 134.135 16.8528C134.135 15.8453 133.813 15.0636 133.17 14.5077C132.528 13.9518 131.555 13.6739 130.252 13.6739H124.936L126.813 11.6675V22.0121ZM149.132 28.4742V10.2344H158.043C160.336 10.2344 162.056 10.6687 163.203 11.5372C164.366 12.4058 164.948 13.5523 164.948 14.9767C164.948 15.9322 164.714 16.766 164.245 17.4782C163.776 18.1731 163.133 18.7116 162.317 19.0937C161.5 19.4759 160.562 19.667 159.502 19.667L159.998 18.5987C161.144 18.5987 162.16 18.7897 163.046 19.1719C163.932 19.5367 164.618 20.0839 165.105 20.8135C165.608 21.5431 165.86 22.4377 165.86 23.4974C165.86 25.0608 165.244 26.2855 164.01 27.1714C162.777 28.04 160.962 28.4742 158.564 28.4742H149.132ZM153.327 25.2953H158.252C159.346 25.2953 160.171 25.1216 160.727 24.7742C161.3 24.4094 161.587 23.8361 161.587 23.0544C161.587 22.2901 161.3 21.7255 160.727 21.3607C160.171 20.9785 159.346 20.7874 158.252 20.7874H153.014V17.7127H157.522C158.547 17.7127 159.329 17.539 159.867 17.1916C160.423 16.8268 160.701 16.2796 160.701 15.55C160.701 14.8378 160.423 14.3079 159.867 13.9605C159.329 13.5957 158.547 13.4133 157.522 13.4133H153.327V25.2953ZM166.659 28.4742L174.789 10.2344H178.958L187.114 28.4742H182.684L176.013 12.371H177.681L170.984 28.4742H166.659ZM170.724 24.5657L171.844 21.3607H181.225L182.371 24.5657H170.724ZM189.006 28.4742V10.2344H196.901C198.534 10.2344 199.941 10.5036 201.123 11.0421C202.304 11.5633 203.216 12.3189 203.858 13.3091C204.501 14.2993 204.823 15.4805 204.823 16.8528C204.823 18.2078 204.501 19.3804 203.858 20.3705C203.216 21.3433 202.304 22.0903 201.123 22.6114C199.941 23.1326 198.534 23.3931 196.901 23.3931H191.351L193.227 21.5431V28.4742H189.006ZM200.601 28.4742L196.041 21.8558H200.549L205.161 28.4742H200.601ZM193.227 22.0121L191.351 20.0318H196.667C197.97 20.0318 198.942 19.7538 199.585 19.198C200.228 18.6247 200.549 17.843 200.549 16.8528C200.549 15.8453 200.228 15.0636 199.585 14.5077C198.942 13.9518 197.97 13.6739 196.667 13.6739H191.351L193.227 11.6675V22.0121ZM211.691 28.4742V13.6739H205.854V10.2344H221.749V13.6739H215.912V28.4742H211.691ZM237.393 28.7869C235.933 28.7869 234.535 28.5958 233.197 28.2137C231.86 27.8141 230.783 27.3017 229.966 26.6763L231.399 23.4974C232.181 24.0532 233.102 24.5136 234.162 24.8784C235.239 25.2258 236.324 25.3995 237.419 25.3995C238.252 25.3995 238.921 25.3214 239.425 25.165C239.946 24.9913 240.328 24.7568 240.572 24.4615C240.815 24.1662 240.936 23.8274 240.936 23.4453C240.936 22.9589 240.745 22.5767 240.363 22.2987C239.981 22.0034 239.477 21.7689 238.852 21.5952C238.226 21.4041 237.532 21.2304 236.767 21.0741C236.02 20.9004 235.265 20.6919 234.5 20.4487C233.753 20.2055 233.067 19.8928 232.442 19.5107C231.816 19.1285 231.304 18.6247 230.904 17.9993C230.522 17.374 230.331 16.5749 230.331 15.6021C230.331 14.5598 230.609 13.6131 231.165 12.7619C231.738 11.8933 232.589 11.2072 233.719 10.7034C234.865 10.1823 236.298 9.92169 238.018 9.92169C239.164 9.92169 240.294 10.0607 241.405 10.3386C242.517 10.5992 243.499 10.9987 244.35 11.5372L243.047 14.7422C242.196 14.2558 241.345 13.8997 240.493 13.6739C239.642 13.4307 238.808 13.3091 237.992 13.3091C237.175 13.3091 236.507 13.4046 235.985 13.5957C235.464 13.7868 235.091 14.0387 234.865 14.3514C234.639 14.6467 234.526 14.9941 234.526 15.3937C234.526 15.8627 234.717 16.2448 235.1 16.5402C235.482 16.8181 235.985 17.0439 236.611 17.2176C237.236 17.3914 237.922 17.5651 238.669 17.7388C239.434 17.9125 240.189 18.1123 240.936 18.3381C241.701 18.5639 242.396 18.8679 243.021 19.2501C243.646 19.6322 244.15 20.136 244.532 20.7614C244.932 21.3868 245.131 22.1771 245.131 23.1326C245.131 24.1575 244.845 25.0955 244.272 25.9467C243.698 26.7979 242.838 27.4841 241.692 28.0052C240.563 28.5264 239.13 28.7869 237.393 28.7869ZM256.745 28.7869C255.338 28.7869 254.026 28.5611 252.81 28.1094C251.612 27.6404 250.569 26.9803 249.684 26.1291C248.798 25.2779 248.103 24.2791 247.599 23.1326C247.113 21.9861 246.869 20.7266 246.869 19.3543C246.869 17.982 247.113 16.7226 247.599 15.5761C248.103 14.4295 248.798 13.4307 249.684 12.5795C250.587 11.7283 251.638 11.0769 252.836 10.6252C254.035 10.1562 255.347 9.92169 256.771 9.92169C258.352 9.92169 259.776 10.1996 261.044 10.7555C262.33 11.294 263.407 12.0931 264.275 13.1528L261.565 15.6542C260.94 14.942 260.245 14.4122 259.481 14.0647C258.717 13.7 257.883 13.5176 256.979 13.5176C256.128 13.5176 255.347 13.6565 254.634 13.9345C253.922 14.2124 253.305 14.6119 252.784 15.1331C252.263 15.6542 251.855 16.2709 251.56 16.9831C251.282 17.6953 251.143 18.4857 251.143 19.3543C251.143 20.2229 251.282 21.0133 251.56 21.7255C251.855 22.4377 252.263 23.0544 252.784 23.5755C253.305 24.0967 253.922 24.4962 254.634 24.7742C255.347 25.0521 256.128 25.1911 256.979 25.1911C257.883 25.1911 258.717 25.0174 259.481 24.6699C260.245 24.3051 260.94 23.7579 261.565 23.0283L264.275 25.5298C263.407 26.5895 262.33 27.3972 261.044 27.9531C259.776 28.509 258.343 28.7869 256.745 28.7869ZM279.633 10.2344H283.855V28.4742H279.633V10.2344ZM271.347 28.4742H267.126V10.2344H271.347V28.4742ZM279.946 20.9959H271.035V17.4261H279.946V20.9959ZM297.029 28.7869C295.588 28.7869 294.25 28.5524 293.017 28.0834C291.801 27.6144 290.741 26.9543 289.838 26.1031C288.952 25.2519 288.257 24.253 287.753 23.1065C287.267 21.96 287.024 20.7093 287.024 19.3543C287.024 17.9993 287.267 16.7486 287.753 15.6021C288.257 14.4556 288.96 13.4568 289.864 12.6056C290.767 11.7544 291.827 11.0943 293.043 10.6252C294.259 10.1562 295.579 9.92169 297.003 9.92169C298.445 9.92169 299.765 10.1562 300.964 10.6252C302.18 11.0943 303.231 11.7544 304.117 12.6056C305.02 13.4568 305.724 14.4556 306.228 15.6021C306.731 16.7312 306.983 17.982 306.983 19.3543C306.983 20.7093 306.731 21.9687 306.228 23.1326C305.724 24.2791 305.02 25.2779 304.117 26.1291C303.231 26.9629 302.18 27.6144 300.964 28.0834C299.765 28.5524 298.454 28.7869 297.029 28.7869ZM297.003 25.1911C297.82 25.1911 298.567 25.0521 299.244 24.7742C299.939 24.4962 300.547 24.0967 301.068 23.5755C301.589 23.0544 301.989 22.4377 302.267 21.7255C302.562 21.0133 302.71 20.2229 302.71 19.3543C302.71 18.4857 302.562 17.6953 302.267 16.9831C301.989 16.2709 301.589 15.6542 301.068 15.1331C300.564 14.6119 299.965 14.2124 299.27 13.9345C298.575 13.6565 297.82 13.5176 297.003 13.5176C296.187 13.5176 295.431 13.6565 294.736 13.9345C294.059 14.2124 293.46 14.6119 292.938 15.1331C292.417 15.6542 292.009 16.2709 291.714 16.9831C291.436 17.6953 291.297 18.4857 291.297 19.3543C291.297 20.2055 291.436 20.9959 291.714 21.7255C292.009 22.4377 292.409 23.0544 292.912 23.5755C293.434 24.0967 294.042 24.4962 294.736 24.7742C295.431 25.0521 296.187 25.1911 297.003 25.1911ZM319.015 28.7869C317.573 28.7869 316.236 28.5524 315.002 28.0834C313.786 27.6144 312.727 26.9543 311.823 26.1031C310.937 25.2519 310.242 24.253 309.739 23.1065C309.252 21.96 309.009 20.7093 309.009 19.3543C309.009 17.9993 309.252 16.7486 309.739 15.6021C310.242 14.4556 310.946 13.4568 311.849 12.6056C312.753 11.7544 313.812 11.0943 315.028 10.6252C316.244 10.1562 317.564 9.92169 318.989 9.92169C320.431 9.92169 321.751 10.1562 322.95 10.6252C324.166 11.0943 325.217 11.7544 326.102 12.6056C327.006 13.4568 327.709 14.4556 328.213 15.6021C328.717 16.7312 328.969 17.982 328.969 19.3543C328.969 20.7093 328.717 21.9687 328.213 23.1326C327.709 24.2791 327.006 25.2779 326.102 26.1291C325.217 26.9629 324.166 27.6144 322.95 28.0834C321.751 28.5524 320.439 28.7869 319.015 28.7869ZM318.989 25.1911C319.805 25.1911 320.552 25.0521 321.23 24.7742C321.925 24.4962 322.533 24.0967 323.054 23.5755C323.575 23.0544 323.974 22.4377 324.252 21.7255C324.548 21.0133 324.695 20.2229 324.695 19.3543C324.695 18.4857 324.548 17.6953 324.252 16.9831C323.974 16.2709 323.575 15.6542 323.054 15.1331C322.55 14.6119 321.951 14.2124 321.256 13.9345C320.561 13.6565 319.805 13.5176 318.989 13.5176C318.172 13.5176 317.417 13.6565 316.722 13.9345C316.044 14.2124 315.445 14.6119 314.924 15.1331C314.403 15.6542 313.995 16.2709 313.699 16.9831C313.421 17.6953 313.282 18.4857 313.282 19.3543C313.282 20.2055 313.421 20.9959 313.699 21.7255C313.995 22.4377 314.394 23.0544 314.898 23.5755C315.419 24.0967 316.027 24.4962 316.722 24.7742C317.417 25.0521 318.172 25.1911 318.989 25.1911ZM332.141 28.4742V10.2344H336.362V25.0347H345.508V28.4742H332.141Z" fill="black"/>
<path d="M109.894 51.6626L103.258 43.4078L104.266 42.8215L111.301 51.6626H109.894ZM98.497 51.6626V35.2467H99.693V51.6626H98.497ZM99.2944 43.8768V42.798H104.289V43.8768H99.2944ZM104.336 43.5719L103.234 43.3374L109.543 35.2467H110.879L104.336 43.5719ZM113.713 56.3059C113.151 56.3059 112.619 56.2121 112.119 56.0245C111.634 55.8369 111.22 55.5633 110.876 55.2037L111.462 54.3126C111.775 54.6409 112.111 54.8832 112.471 55.0396C112.846 55.1959 113.268 55.2741 113.737 55.2741C114.3 55.2741 114.792 55.1178 115.214 54.8051C115.652 54.4924 116.059 53.9217 116.434 53.0931L117.278 51.217L117.442 51.006L122.625 39.421H123.821L117.536 53.3276C117.208 54.0781 116.848 54.6644 116.457 55.0865C116.082 55.5242 115.668 55.8369 115.214 56.0245C114.761 56.2121 114.261 56.3059 113.713 56.3059ZM117.255 51.9675L111.579 39.421H112.822L117.982 50.9356L117.255 51.9675ZM132.824 51.7564C131.745 51.7564 130.768 51.5063 129.892 51.006C129.033 50.5057 128.345 49.7943 127.829 48.8719C127.328 47.9338 127.078 46.8238 127.078 45.5418C127.078 44.2598 127.328 43.1576 127.829 42.2352C128.345 41.2971 129.033 40.578 129.892 40.0777C130.768 39.5774 131.745 39.3272 132.824 39.3272C133.981 39.3272 135.013 39.593 135.919 40.1246C136.842 40.6405 137.561 41.3675 138.077 42.3055C138.608 43.2436 138.874 44.3224 138.874 45.5418C138.874 46.7613 138.608 47.84 138.077 48.7781C137.561 49.7161 136.842 50.4509 135.919 50.9825C135.013 51.4984 133.981 51.7564 132.824 51.7564ZM126.68 56.2121V39.421H127.805V43.4312L127.618 45.5653L127.852 47.6993V56.2121H126.68ZM132.753 50.7011C133.692 50.7011 134.536 50.49 135.286 50.0679C136.037 49.6302 136.623 49.0204 137.045 48.2387C137.483 47.457 137.702 46.558 137.702 45.5418C137.702 44.51 137.483 43.611 137.045 42.8449C136.623 42.0632 136.037 41.4613 135.286 41.0392C134.536 40.6014 133.692 40.3825 132.753 40.3825C131.815 40.3825 130.971 40.6014 130.221 41.0392C129.486 41.4613 128.9 42.0632 128.462 42.8449C128.04 43.611 127.829 44.51 127.829 45.5418C127.829 46.558 128.04 47.457 128.462 48.2387C128.9 49.0204 129.486 49.6302 130.221 50.0679C130.971 50.49 131.815 50.7011 132.753 50.7011ZM147.635 51.7564C146.447 51.7564 145.384 51.4906 144.446 50.9591C143.524 50.4275 142.789 49.6927 142.242 48.7546C141.71 47.8166 141.444 46.7456 141.444 45.5418C141.444 44.3224 141.71 43.2436 142.242 42.3055C142.789 41.3675 143.524 40.6405 144.446 40.1246C145.384 39.593 146.447 39.3272 147.635 39.3272C148.62 39.3272 149.512 39.5148 150.309 39.8901C151.122 40.2653 151.779 40.8281 152.279 41.5786L151.411 42.2117C150.973 41.5864 150.426 41.1252 149.77 40.8281C149.113 40.5311 148.402 40.3825 147.635 40.3825C146.682 40.3825 145.822 40.6014 145.056 41.0392C144.305 41.4613 143.711 42.0632 143.274 42.8449C142.851 43.611 142.64 44.51 142.64 45.5418C142.64 46.5737 142.851 47.4805 143.274 48.2622C143.711 49.0282 144.305 49.6302 145.056 50.0679C145.822 50.49 146.682 50.7011 147.635 50.7011C148.402 50.7011 149.113 50.5526 149.77 50.2555C150.426 49.9585 150.973 49.4973 151.411 48.8719L152.279 49.5051C151.779 50.2555 151.122 50.8184 150.309 51.1936C149.512 51.5688 148.62 51.7564 147.635 51.7564ZM167.49 51.6626V39.421H168.663V51.6626H167.49ZM160.572 43.8768C162.104 43.8924 163.261 44.2285 164.043 44.8852C164.84 45.5262 165.239 46.4721 165.239 47.7228C165.239 49.0204 164.817 50.0132 163.973 50.7011C163.128 51.389 161.909 51.7251 160.314 51.7095L155.741 51.6626V39.421H156.914V43.8299L160.572 43.8768ZM160.267 50.7714C161.518 50.7871 162.464 50.5369 163.105 50.021C163.746 49.5051 164.066 48.739 164.066 47.7228C164.066 46.7378 163.746 46.003 163.105 45.5184C162.48 45.0337 161.534 44.7836 160.267 44.7679L156.914 44.7445V50.7245L160.267 50.7714ZM187.364 51.6626V48.8719L187.317 48.4498V43.8533C187.317 42.712 187.005 41.8443 186.379 41.2502C185.77 40.6561 184.871 40.3591 183.682 40.3591C182.838 40.3591 182.049 40.5076 181.314 40.8047C180.595 41.0861 179.977 41.4535 179.461 41.9069L178.875 41.0626C179.485 40.5154 180.219 40.0933 181.079 39.7963C181.939 39.4836 182.838 39.3272 183.776 39.3272C185.293 39.3272 186.458 39.7103 187.27 40.4763C188.083 41.2424 188.49 42.3837 188.49 43.9002V51.6626H187.364ZM182.955 51.7564C182.049 51.7564 181.259 51.6157 180.587 51.3343C179.93 51.0372 179.422 50.6229 179.063 50.0914C178.719 49.5598 178.547 48.9501 178.547 48.2622C178.547 47.6368 178.687 47.074 178.969 46.5737C179.266 46.0577 179.75 45.6434 180.423 45.3308C181.095 45.0024 181.994 44.8383 183.12 44.8383H187.622V45.7529H183.143C181.877 45.7529 180.986 45.9874 180.47 46.4564C179.969 46.9254 179.719 47.5117 179.719 48.2153C179.719 48.997 180.016 49.6223 180.61 50.0914C181.204 50.5604 182.041 50.7949 183.12 50.7949C184.151 50.7949 185.019 50.5604 185.723 50.0914C186.442 49.6223 186.973 48.9423 187.317 48.0511L187.646 48.8484C187.317 49.7396 186.755 50.4509 185.957 50.9825C185.176 51.4984 184.175 51.7564 182.955 51.7564ZM193.254 51.6626V39.421H194.427V45.0024H202.728V39.421H203.901V51.6626H202.728V46.0343H194.427V51.6626H193.254ZM208.965 51.6626V39.421H217.337V40.4763H209.809L210.137 40.148V51.6626H208.965ZM216.717 51.6157L216.835 50.6073C216.928 50.6229 217.022 50.6464 217.116 50.6776C217.226 50.6933 217.319 50.7011 217.397 50.7011C217.929 50.7011 218.351 50.5057 218.664 50.1148C218.977 49.7083 219.211 49.1689 219.367 48.4967C219.539 47.8244 219.657 47.0662 219.719 46.2219C219.797 45.3777 219.86 44.5178 219.907 43.6423L220.118 39.421H228.701V51.6626H227.528V40.1011L227.857 40.4763H220.868L221.173 40.0777L220.986 43.7361C220.923 44.7992 220.837 45.8154 220.728 46.7847C220.618 47.7541 220.454 48.6139 220.235 49.3644C220.016 50.1148 219.704 50.7089 219.297 51.1467C218.891 51.5688 218.367 51.7799 217.726 51.7799C217.569 51.7799 217.405 51.7642 217.233 51.733C217.077 51.7017 216.905 51.6626 216.717 51.6157ZM233.767 51.6626V39.421H234.94V49.8569L243.663 39.421H244.695V51.6626H243.523V41.2268L234.799 51.6626H233.767ZM249.752 51.6626V39.421H250.925V49.8569L259.649 39.421H260.681V51.6626H259.508V41.2268L250.784 51.6626H249.752ZM255.17 37.5449C254.216 37.5449 253.426 37.2948 252.801 36.7945C252.191 36.2786 251.871 35.5672 251.84 34.6604H252.707C252.738 35.3014 252.981 35.8095 253.434 36.1848C253.903 36.56 254.482 36.7476 255.17 36.7476C255.857 36.7476 256.428 36.56 256.882 36.1848C257.351 35.8095 257.593 35.3014 257.609 34.6604H258.5C258.484 35.5672 258.164 36.2786 257.538 36.7945C256.928 37.2948 256.139 37.5449 255.17 37.5449ZM270.686 51.7564C269.498 51.7564 268.435 51.4906 267.497 50.9591C266.574 50.4275 265.839 49.6927 265.292 48.7546C264.761 47.8166 264.495 46.7456 264.495 45.5418C264.495 44.3224 264.761 43.2436 265.292 42.3055C265.839 41.3675 266.574 40.6405 267.497 40.1246C268.435 39.593 269.498 39.3272 270.686 39.3272C271.671 39.3272 272.562 39.5148 273.359 39.8901C274.172 40.2653 274.829 40.8281 275.329 41.5786L274.462 42.2117C274.024 41.5864 273.477 41.1252 272.82 40.8281C272.163 40.5311 271.452 40.3825 270.686 40.3825C269.732 40.3825 268.872 40.6014 268.106 41.0392C267.356 41.4613 266.762 42.0632 266.324 42.8449C265.902 43.611 265.691 44.51 265.691 45.5418C265.691 46.5737 265.902 47.4805 266.324 48.2622C266.762 49.0282 267.356 49.6302 268.106 50.0679C268.872 50.49 269.732 50.7011 270.686 50.7011C271.452 50.7011 272.163 50.5526 272.82 50.2555C273.477 49.9585 274.024 49.4973 274.462 48.8719L275.329 49.5051C274.829 50.2555 274.172 50.8184 273.359 51.1936C272.562 51.5688 271.671 51.7564 270.686 51.7564ZM287.82 51.6626L282.567 45.5418L283.552 44.979L289.227 51.6626H287.82ZM278.792 51.6626V39.421H279.964V51.6626H278.792ZM279.589 45.9874V44.979H283.435V45.9874H279.589ZM283.623 45.6591L282.544 45.4715L287.562 39.421H288.852L283.623 45.6591ZM296.563 51.7564C295.391 51.7564 294.343 51.4906 293.421 50.9591C292.514 50.4275 291.787 49.6927 291.24 48.7546C290.708 47.8166 290.442 46.7456 290.442 45.5418C290.442 44.3224 290.708 43.2514 291.24 42.329C291.787 41.3909 292.514 40.6561 293.421 40.1246C294.343 39.593 295.391 39.3272 296.563 39.3272C297.736 39.3272 298.783 39.593 299.706 40.1246C300.628 40.6561 301.355 41.3909 301.887 42.329C302.418 43.2514 302.684 44.3224 302.684 45.5418C302.684 46.7456 302.418 47.8166 301.887 48.7546C301.355 49.6927 300.628 50.4275 299.706 50.9591C298.783 51.4906 297.736 51.7564 296.563 51.7564ZM296.563 50.7011C297.501 50.7011 298.345 50.49 299.096 50.0679C299.846 49.6302 300.433 49.0204 300.855 48.2387C301.277 47.457 301.488 46.558 301.488 45.5418C301.488 44.51 301.277 43.611 300.855 42.8449C300.433 42.0632 299.846 41.4613 299.096 41.0392C298.345 40.6014 297.501 40.3825 296.563 40.3825C295.625 40.3825 294.781 40.6014 294.03 41.0392C293.296 41.4613 292.709 42.0632 292.271 42.8449C291.849 43.611 291.638 44.51 291.638 45.5418C291.638 46.558 291.849 47.457 292.271 48.2387C292.709 49.0204 293.296 49.6302 294.03 50.0679C294.781 50.49 295.625 50.7011 296.563 50.7011ZM306.503 51.6626V39.421H314.875V40.4763H307.347L307.675 40.148V51.6626H306.503ZM321.686 51.7564C320.514 51.7564 319.466 51.4906 318.544 50.9591C317.637 50.4275 316.91 49.6927 316.363 48.7546C315.831 47.8166 315.565 46.7456 315.565 45.5418C315.565 44.3224 315.831 43.2514 316.363 42.329C316.91 41.3909 317.637 40.6561 318.544 40.1246C319.466 39.593 320.514 39.3272 321.686 39.3272C322.859 39.3272 323.906 39.593 324.829 40.1246C325.751 40.6561 326.478 41.3909 327.01 42.329C327.541 43.2514 327.807 44.3224 327.807 45.5418C327.807 46.7456 327.541 47.8166 327.01 48.7546C326.478 49.6927 325.751 50.4275 324.829 50.9591C323.906 51.4906 322.859 51.7564 321.686 51.7564ZM321.686 50.7011C322.624 50.7011 323.468 50.49 324.219 50.0679C324.969 49.6302 325.556 49.0204 325.978 48.2387C326.4 47.457 326.611 46.558 326.611 45.5418C326.611 44.51 326.4 43.611 325.978 42.8449C325.556 42.0632 324.969 41.4613 324.219 41.0392C323.468 40.6014 322.624 40.3825 321.686 40.3825C320.748 40.3825 319.904 40.6014 319.153 41.0392C318.419 41.4613 317.832 42.0632 317.395 42.8449C316.972 43.611 316.761 44.51 316.761 45.5418C316.761 46.558 316.972 47.457 317.395 48.2387C317.832 49.0204 318.419 49.6302 319.153 50.0679C319.904 50.49 320.748 50.7011 321.686 50.7011ZM345.599 51.6626V47.16L345.857 47.4414H341.518C339.986 47.4414 338.79 47.1131 337.93 46.4564C337.086 45.7841 336.664 44.7992 336.664 43.5016C336.664 42.1258 337.125 41.1017 338.047 40.4294C338.97 39.7572 340.189 39.421 341.706 39.421H346.677V51.6626H345.599ZM336.593 51.6626L339.994 46.9489H341.237L337.883 51.6626H336.593ZM345.599 46.8316V40.1011L345.857 40.4529H341.776C340.525 40.4529 339.556 40.6952 338.868 41.1799C338.18 41.6645 337.836 42.4541 337.836 43.5485C337.836 45.5496 339.103 46.5502 341.635 46.5502H345.857L345.599 46.8316ZM354.461 51.7799C353.617 51.7799 352.764 51.647 351.905 51.3812C351.045 51.1154 350.286 50.7089 349.63 50.1617L350.075 49.294C350.669 49.7943 351.357 50.1695 352.139 50.4197C352.921 50.6542 353.702 50.7636 354.484 50.748C355.282 50.748 355.977 50.6307 356.571 50.3962C357.181 50.1617 357.65 49.8412 357.978 49.4347C358.307 49.0282 358.471 48.5748 358.471 48.0746C358.471 47.3397 358.143 46.7691 357.486 46.3626C356.829 45.9561 355.93 45.7529 354.789 45.7529H352.819V44.8617H354.742C355.399 44.8617 355.977 44.7757 356.478 44.6038C356.993 44.4318 357.392 44.1816 357.674 43.8533C357.971 43.5094 358.119 43.1107 358.119 42.6573C358.119 42.157 357.947 41.7349 357.603 41.3909C357.275 41.0314 356.822 40.7656 356.243 40.5936C355.68 40.4216 355.047 40.3356 354.343 40.3356C353.734 40.3513 353.101 40.4451 352.444 40.6171C351.803 40.789 351.17 41.047 350.544 41.3909L350.169 40.4529C350.857 40.0777 351.553 39.7963 352.256 39.6087C352.96 39.421 353.671 39.3194 354.39 39.3038C355.297 39.2881 356.126 39.4132 356.876 39.679C357.627 39.9291 358.221 40.2966 358.659 40.7812C359.096 41.2502 359.315 41.8209 359.315 42.4932C359.315 43.1029 359.128 43.6344 358.752 44.0878C358.393 44.5256 357.892 44.8695 357.251 45.1197C356.626 45.3698 355.923 45.4949 355.141 45.4949L355.235 45.1197C356.642 45.1197 357.728 45.3933 358.494 45.9405C359.276 46.4877 359.667 47.2225 359.667 48.1449C359.667 48.8797 359.432 49.5207 358.963 50.0679C358.494 50.6151 357.861 51.0372 357.064 51.3343C356.282 51.6313 355.414 51.7799 354.461 51.7799ZM375.529 51.6626V39.421H376.701V51.6626H375.529ZM368.61 43.8768C370.143 43.8924 371.3 44.2285 372.081 44.8852C372.879 45.5262 373.277 46.4721 373.277 47.7228C373.277 49.0204 372.855 50.0132 372.011 50.7011C371.167 51.389 369.947 51.7251 368.352 51.7095L363.78 51.6626V39.421H364.952V43.8299L368.61 43.8768ZM368.306 50.7714C369.556 50.7871 370.502 50.5369 371.143 50.021C371.784 49.5051 372.105 48.739 372.105 47.7228C372.105 46.7378 371.784 46.003 371.143 45.5184C370.518 45.0337 369.572 44.7836 368.306 44.7679L364.952 44.7445V50.7245L368.306 50.7714ZM390.763 51.6626L385.51 45.5418L386.495 44.979L392.17 51.6626H390.763ZM381.734 51.6626V39.421H382.907V51.6626H381.734ZM382.532 45.9874V44.979H386.378V45.9874H382.532ZM386.565 45.6591L385.487 45.4715L390.505 39.421H391.795L386.565 45.6591ZM402.479 51.6626V48.8719L402.432 48.4498V43.8533C402.432 42.712 402.12 41.8443 401.494 41.2502C400.885 40.6561 399.986 40.3591 398.797 40.3591C397.953 40.3591 397.164 40.5076 396.429 40.8047C395.71 41.0861 395.092 41.4535 394.576 41.9069L393.99 41.0626C394.6 40.5154 395.334 40.0933 396.194 39.7963C397.054 39.4836 397.953 39.3272 398.891 39.3272C400.408 39.3272 401.572 39.7103 402.385 40.4763C403.198 41.2424 403.605 42.3837 403.605 43.9002V51.6626H402.479ZM398.07 51.7564C397.164 51.7564 396.374 51.6157 395.702 51.3343C395.045 51.0372 394.537 50.6229 394.177 50.0914C393.834 49.5598 393.662 48.9501 393.662 48.2622C393.662 47.6368 393.802 47.074 394.084 46.5737C394.381 46.0577 394.865 45.6434 395.538 45.3308C396.21 45.0024 397.109 44.8383 398.235 44.8383H402.737V45.7529H398.258C396.992 45.7529 396.1 45.9874 395.585 46.4564C395.084 46.9254 394.834 47.5117 394.834 48.2153C394.834 48.997 395.131 49.6223 395.725 50.0914C396.319 50.5604 397.156 50.7949 398.235 50.7949C399.266 50.7949 400.134 50.5604 400.838 50.0914C401.557 49.6223 402.088 48.9423 402.432 48.0511L402.761 48.8484C402.432 49.7396 401.869 50.4509 401.072 50.9825C400.29 51.4984 399.29 51.7564 398.07 51.7564Z" fill="black"/>
</svg>
